#!OML:ASF F:\VICON\USERDATA\INSTALL\rory3\rory3.ASF
:FULLY-SPECIFIED
:DEGREES
1278
root -10.8917 17.6832 3.18239 4.44171 15.7956 3.44787
lowerback 3.6616 3.07786 -2.81261
upperback -0.0323072 3.99114 0.403387
thorax -2.30382 2.02492 1.75662
lowerneck -18.9686 9.34856 -4.61201
upperneck 37.8697 18.5696 -4.07171
head 17.085 6.4849 2.65618
rclavicle -1.85864e-014 -9.14409e-015
rhumerus -36.385 -5.15925 -78.7424
rradius 34.7437
rwrist 18.3126
rhand -25.0112 3.49558
rfingers 7.12502
rthumb 1.50076 -26.4789
lclavicle -1.85864e-014 -9.14409e-015
lhumerus -32.1337 -0.494735 83.9644
lradius 51.465
lwrist -4.79145
lhand -12.9457 20.4149
lfingers 7.12502
lthumb 13.1456 49.9805
rfemur -11.2687 13.3514 8.54346
rtibia 34.7402
rfoot -13.2886 16.1307
rtoes 4.38288
lfemur -18.211 -10.9069 -19.3561
ltibia 24.2238
lfoot -1.30621 -33.2614
ltoes 9.43581
1279
root -10.9604 17.6831 3.18149 4.60479 16.6068 3.51461
lowerback 3.62174 3.14071 -2.76726
upperback -0.00663699 4.07845 0.408437
thorax -2.25687 2.06718 1.73428
lowerneck -19.0568 9.34385 -4.83353
upperneck 37.9949 18.6324 -3.91736
head 17.1229 6.49582 2.77736
rclavicle 1.1609e-013 -1.59028e-015
rhumerus -36.1816 -5.25079 -78.6289
rradius 34.7948
rwrist 18.5065
rhand -24.7977 3.55441
rfingers 7.12502
rthumb 1.70691 -26.4185
lclavicle 1.1609e-013 -1.59028e-015
lhumerus -31.9678 -0.314924 83.9941
lradius 51.4931
lwrist -4.92452
lhand -12.5928 21.1079
lfingers 7.12502
lthumb 13.4857 50.6513
rfemur -11.1216 12.9705 8.639
rtibia 34.4557
rfoot -13.24 16.6142
rtoes 4.60643
lfemur -18.558 -11.3731 -19.1084
ltibia 24.1951
lfoot -0.622604 -33.3969
ltoes 10.3198
1280
root -11.034 17.6738 3.18001 4.69 17.5297 3.59658
lowerback 3.62497 3.16302 -2.81381
upperback 0.083078 4.10807 0.45501
thorax -2.17462 2.08079 1.80895
lowerneck -19.1191 9.33474 -4.94533
upperneck 38.0432 18.6808 -3.88545
head 17.147 6.50397 2.82459
rclavicle 3.97569e-016 -7.95139e-015
rhumerus -35.9044 -5.26138 -78.524
rradius 34.8385
rwrist 18.6527
rhand -24.8595 3.67502
rfingers 7.12502
rthumb 1.64731 -26.2984
lclavicle 3.97569e-016 -7.95139e-015
lhumerus -31.7717 -0.0669964 84.0094
lradius 51.4947
lwrist -5.16273
lhand -12.3318 21.6149
lfingers 7.12502
lthumb 13.7373 51.1415
rfemur -10.7491 12.4051 8.8364
rtibia 34.1195
rfoot -13.4802 16.8212
rtoes 4.58485
lfemur -18.8294 -11.8602 -18.876
ltibia 24.1467
lfoot 0.0288591 -33.5917
ltoes 11.0245
1281
root -11.1036 17.6674 3.17492 4.90523 18.276 3.60013
lowerback 3.51338 3.23026 -2.72498
upperback 0.107691 4.20542 0.477856
thorax -2.08737 2.12738 1.78458
lowerneck -19.0198 9.35191 -4.84282
upperneck 37.9875 18.7573 -4.09012
head 17.1424 6.53304 2.73277
rclavicle -4.4975e-014 -2.38542e-015
rhumerus -35.6531 -5.28128 -78.4587
rradius 34.8972
rwrist 18.8458
rhand -25.0665 3.76502
rfingers 7.12502
rthumb 1.44734 -26.2098
lclavicle -4.4975e-014 -2.38542e-015
lhumerus -31.7338 0.108235 83.9695
lradius 51.5959
lwrist -5.27585
lhand -12.3778 21.4051
lfingers 7.12502
lthumb 13.6929 50.9346
rfemur -10.6258 11.8087 9.0432
rtibia 33.743
rfoot -13.6131 16.9928
rtoes 4.90155
lfemur -19.3001 -12.2991 -18.5471
ltibia 24.108
lfoot 0.764788 -33.6832
ltoes 11.9907
1282
root -11.1709 17.6669 3.16755 5.11026 18.9524 3.53602
lowerback 3.46803 3.30302 -2.55759
upperback 0.0839603 4.31111 0.522241
thorax -2.08301 2.17895 1.73268
lowerneck -18.9296 9.40822 -4.81827
upperneck 37.9902 18.9003 -4.20844
head 17.1476 6.58733 2.7035
rclavicle -4.24405e-014 8.74653e-015
rhumerus -35.4169 -5.24983 -78.3576
rradius 34.9352
rwrist 19.0168
rhand -25.1754 3.84995
rfingers 7.12502
rthumb 1.3422 -26.1256
lclavicle -4.24405e-014 8.74653e-015
lhumerus -31.7728 0.460674 83.864
lradius 51.5708
lwrist -5.34963
lhand -12.6135 20.3383
lfingers 7.12502
lthumb 13.4658 49.883
rfemur -10.6141 11.2435 9.30707
rtibia 33.3601
rfoot -13.6575 17.1145
rtoes 5.69773
lfemur -19.7941 -12.7021 -18.1509
ltibia 24.0786
lfoot 1.48368 -33.7177
ltoes 13.2054
1283
root -11.2415 17.6629 3.16318 5.09453 19.813 3.52438
lowerback 3.48927 3.36898 -2.4844
upperback 0.244117 4.40457 0.61988
thorax -1.93709 2.22222 1.79115
lowerneck -18.8595 9.3884 -4.91918
upperneck 37.858 18.9515 -4.35158
head 17.0749 6.5949 2.65981
rclavicle 3.89618e-014 8.74653e-015
rhumerus -34.9779 -5.22459 -78.1846
rradius 34.8889
rwrist 18.8813
rhand -25.3378 3.82715
rfingers 7.12502
rthumb 1.18533 -26.1493
lclavicle 3.89618e-014 8.74653e-015
lhumerus -31.4864 0.870747 83.8719
lradius 51.221
lwrist -5.45879
lhand -13.0242 19.0847
lfingers 7.12502
lthumb 13.0698 48.6552
rfemur -10.249 10.6462 9.68457
rtibia 33.0179
rfoot -14.1241 16.9411
rtoes 4.94047
lfemur -19.9831 -13.1668 -17.8548
ltibia 23.9984
lfoot 2.0175 -33.8601
ltoes 13.8183
1284
root -11.3149 17.6561 3.15495 5.29485 20.7141 3.67633
lowerback 3.32555 3.43641 -2.57811
upperback 0.421039 4.49785 0.691358
thorax -1.68139 2.26527 1.92804
lowerneck -18.871 9.30509 -5.10089
upperneck 37.6958 18.9145 -4.45451
head 16.9896 6.55994 2.63233
rclavicle -3.46879e-014 3.97569e-015
rhumerus -34.4552 -5.15204 -77.9925
rradius 34.8482
rwrist 18.509
rhand -25.4534 3.69244
rfingers 7.12502
rthumb 1.07365 -26.2846
lclavicle -3.46879e-014 3.97569e-015
lhumerus -31.1746 1.08955 84.0134
lradius 51.0349
lwrist -5.42585
lhand -13.203 19.7391
lfingers 7.12502
lthumb 12.8975 49.3205
rfemur -10.0329 9.93301 9.88821
rtibia 32.7185
rfoot -14.5911 16.7035
rtoes 4.9252
lfemur -20.3145 -13.6041 -17.6973
ltibia 23.8495
lfoot 2.33973 -34.0355
ltoes 13.7538
1285
root -11.3908 17.6531 3.136 5.65725 21.6101 3.73536
lowerback 3.3414 3.48635 -2.3994
upperback 0.36108 4.56875 0.617163
thorax -1.73567 2.30027 1.74591
lowerneck -18.9635 9.24546 -5.18209
upperneck 37.7612 18.8383 -4.32993
head 17.0159 6.53187 2.69194
rclavicle -3.81667e-014 -6.36111e-015
rhumerus -34.1851 -5.24301 -77.9613
rradius 34.8037
rwrist 18.4032
rhand -25.5037 3.49912
rfingers 7.12502
rthumb 1.02512 -26.4782
lclavicle -3.81667e-014 -6.36111e-015
lhumerus -31.2053 1.09189 83.9314
lradius 51.078
lwrist -5.3346
lhand -12.895 21.7937
lfingers 7.12502
lthumb 13.1944 51.3562
rfemur -10.0809 9.18462 10.1545
rtibia 32.424
rfoot -14.9905 16.349
rtoes 5.69119
lfemur -20.898 -13.9768 -17.3804
ltibia 23.6422
lfoot 2.81641 -34.2312
ltoes 13.6137
1286
root -11.4684 17.6568 3.1153 5.89181 22.4954 3.65926
lowerback 3.57351 3.51197 -2.03038
upperback 0.237407 4.60889 0.510039
thorax -1.95658 2.31981 1.40984
lowerneck -18.9405 9.25447 -5.12594
upperneck 37.8119 18.803 -4.21021
head 17.0214 6.54542 2.72808
rclavicle -8.2595e-014 2.38542e-015
rhumerus -34.0836 -5.43372 -78.0168
rradius 34.8956
rwrist 18.3633
rhand -25.1287 3.27897
rfingers 7.12502
rthumb 1.38728 -26.6963
lclavicle -8.2595e-014 2.38542e-015
lhumerus -31.3528 1.17353 83.6659
lradius 51.0192
lwrist -5.33054
lhand -12.7575 22.4153
lfingers 7.12502
lthumb 13.327 51.9691
rfemur -10.0952 8.57952 10.6206
rtibia 32.1252
rfoot -15.5504 15.6604
rtoes 5.81236
lfemur -21.4022 -14.317 -16.9325
ltibia 23.4064
lfoot 3.27893 -34.4446
ltoes 13.0583
